<svg width="20" height="20" viewBox="0 0 12 13" fill="none" xmlns="http://www.w3.org/2000/svg">
<path d="M2.25 2.83333V10.0444C2.25 10.729 2.25 11.071 2.38624 11.3324C2.50608 11.5624 2.69717 11.7497 2.93237 11.8669C3.1995 12 3.54937 12 4.24807 12H7.75193C8.45063 12 8.79999 12 9.06712 11.8669C9.30232 11.7497 9.49405 11.5624 9.61389 11.3324C9.75 11.0712 9.75 10.7295 9.75 10.0463V2.83333M2.25 2.83333H3.5M2.25 2.83333H1M3.5 2.83333H8.5M3.5 2.83333C3.5 2.26385 3.5 1.97925 3.59515 1.75464C3.72202 1.45516 3.9652 1.21708 4.27148 1.09304C4.5012 1 4.79257 1 5.375 1H6.625C7.20743 1 7.49864 1 7.72835 1.09304C8.03464 1.21708 8.27792 1.45516 8.40479 1.75464C8.49994 1.97925 8.5 2.26385 8.5 2.83333M8.5 2.83333H9.75M9.75 2.83333H11" stroke="white" stroke-width="1.5" stroke-linecap="round" stroke-linejoin="round"/>
</svg>